<svg width="400" height="400" xmlns="http://www.w3.org/2000/svg">
  <defs>
    <radialGradient id="starGradient" cx="50%" cy="50%" r="50%" fx="50%" fy="50%">
      <stop offset="0%" stop-color="white" stop-opacity="1" />
      <stop offset="100%" stop-color="white" stop-opacity="0" />
    </radialGradient>
  </defs>
  
  <!-- Small stars -->
  <circle cx="30" cy="30" r="1" fill="white" opacity="0.8" />
  <circle cx="70" cy="50" r="0.8" fill="white" opacity="0.7" />
  <circle cx="120" cy="20" r="1.2" fill="white" opacity="0.9" />
  <circle cx="180" cy="40" r="0.7" fill="white" opacity="0.6" />
  <circle cx="220" cy="70" r="1" fill="white" opacity="0.8" />
  <circle cx="270" cy="30" r="0.9" fill="white" opacity="0.7" />
  <circle cx="320" cy="60" r="1.1" fill="white" opacity="0.9" />
  <circle cx="370" cy="90" r="0.8" fill="white" opacity="0.7" />
  
  <circle cx="40" cy="120" r="0.9" fill="white" opacity="0.8" />
  <circle cx="90" cy="150" r="1" fill="white" opacity="0.9" />
  <circle cx="140" cy="110" r="0.7" fill="white" opacity="0.6" />
  <circle cx="190" cy="140" r="1.2" fill="white" opacity="0.8" />
  <circle cx="240" cy="170" r="0.8" fill="white" opacity="0.7" />
  <circle cx="290" cy="130" r="1" fill="white" opacity="0.9" />
  <circle cx="340" cy="160" r="0.7" fill="white" opacity="0.6" />
  <circle cx="380" cy="190" r="1.1" fill="white" opacity="0.8" />
  
  <circle cx="20" cy="220" r="0.8" fill="white" opacity="0.7" />
  <circle cx="70" cy="250" r="1.2" fill="white" opacity="0.9" />
  <circle cx="120" cy="210" r="0.7" fill="white" opacity="0.6" />
  <circle cx="170" cy="240" r="1" fill="white" opacity="0.8" />
  <circle cx="220" cy="270" r="0.9" fill="white" opacity="0.7" />
  <circle cx="270" cy="230" r="1.1" fill="white" opacity="0.9" />
  <circle cx="320" cy="260" r="0.8" fill="white" opacity="0.7" />
  <circle cx="370" cy="290" r="1" fill="white" opacity="0.8" />
  
  <circle cx="30" cy="320" r="1" fill="white" opacity="0.9" />
  <circle cx="80" cy="350" r="0.7" fill="white" opacity="0.6" />
  <circle cx="130" cy="310" r="1.2" fill="white" opacity="0.8" />
  <circle cx="180" cy="340" r="0.8" fill="white" opacity="0.7" />
  <circle cx="230" cy="370" r="1" fill="white" opacity="0.9" />
  <circle cx="280" cy="330" r="0.7" fill="white" opacity="0.6" />
  <circle cx="330" cy="360" r="1.1" fill="white" opacity="0.8" />
  <circle cx="380" cy="390" r="0.9" fill="white" opacity="0.7" />
  
  <!-- Medium stars with glow -->
  <circle cx="50" cy="80" r="1.5" fill="url(#starGradient)" opacity="0.9" />
  <circle cx="150" cy="60" r="1.8" fill="url(#starGradient)" opacity="0.8" />
  <circle cx="250" cy="100" r="1.6" fill="url(#starGradient)" opacity="0.9" />
  <circle cx="350" cy="40" r="1.7" fill="url(#starGradient)" opacity="0.8" />
  
  <circle cx="60" cy="180" r="1.6" fill="url(#starGradient)" opacity="0.9" />
  <circle cx="160" cy="200" r="1.7" fill="url(#starGradient)" opacity="0.8" />
  <circle cx="260" cy="160" r="1.5" fill="url(#starGradient)" opacity="0.9" />
  <circle cx="360" cy="220" r="1.8" fill="url(#starGradient)" opacity="0.8" />
  
  <circle cx="50" cy="280" r="1.7" fill="url(#starGradient)" opacity="0.9" />
  <circle cx="150" cy="300" r="1.5" fill="url(#starGradient)" opacity="0.8" />
  <circle cx="250" cy="260" r="1.8" fill="url(#starGradient)" opacity="0.9" />
  <circle cx="350" cy="320" r="1.6" fill="url(#starGradient)" opacity="0.8" />
  
  <!-- Large stars with stronger glow -->
  <circle cx="100" cy="100" r="2.5" fill="url(#starGradient)" opacity="1" />
  <circle cx="300" cy="200" r="2.8" fill="url(#starGradient)" opacity="1" />
  <circle cx="200" cy="300" r="2.6" fill="url(#starGradient)" opacity="1" />
  <circle cx="100" cy="350" r="2.7" fill="url(#starGradient)" opacity="1" />
  <circle cx="350" cy="120" r="2.5" fill="url(#starGradient)" opacity="1" />
</svg> 